<svg width="460" height="361" viewBox="0 0 460 361" fill="none" xmlns="http://www.w3.org/2000/svg">
<path fill-rule="evenodd" clip-rule="evenodd" d="M321.339 129.977C321.19 130.98 321.582 132.618 320.535 133.77C319.732 134.654 318.598 134.697 317.101 134.117C316.839 136.911 316.507 142.937 313.052 142.008C310.604 141.35 311.259 138.55 310.97 136.527C309.384 138.418 308.149 141.326 305.346 140.213C300.871 138.431 307.585 130.08 309.219 128.019C295.957 123.045 288.156 115.683 283.4 106.615C278.733 97.7239 276.573 86.8687 280.726 74.5627C285.07 61.6968 294.04 54.3367 303.179 49.849C312.662 45.1943 323.347 43.2704 336.46 46.5931C347.436 49.376 355.353 55.5324 360.496 61.6915C368.484 71.256 372.984 86.0524 367.436 101.234C363.893 110.92 357.21 117.836 349.904 122.587C341.709 127.913 332.389 130.626 321.339 129.977Z" fill="#EF334E"/>
<path fill-rule="evenodd" clip-rule="evenodd" d="M323.32 129.338C322.539 130.344 322.487 130.631 322.129 131.531C321.031 132.467 318.412 131.822 315.914 131.513C313.006 131.155 310.692 130.814 307.915 129.99C307.219 129.783 305.312 129.603 305.957 128.422C306.447 127.528 307.433 128.351 307.995 128.173C308.185 128.113 307.891 127.04 308.537 126.689C311.475 126.734 315.484 127.596 318.748 128.019C320.567 128.255 322.287 127.997 323.32 129.338Z" fill="#314F5F"/>
<path fill-rule="evenodd" clip-rule="evenodd" d="M305.564 58.754C306.018 61.2297 303.922 63.1736 302.636 65.1709C298.668 71.3273 295.899 78.7355 295.275 86.3629C294.93 90.6114 295.111 94.9935 295.982 99.3222C296.304 100.915 296.937 103.235 297.069 105.398C297.214 107.833 296.213 110.752 293.866 110.431C291.345 110.085 289.72 105.659 288.731 103.207C284.696 93.214 284.955 75.481 295.035 64.1462C297.347 61.549 300.884 58.5963 303.481 58.0686C304.091 57.947 304.912 57.9965 305.564 58.754Z" fill="white"/>
<path fill-rule="evenodd" clip-rule="evenodd" d="M302.75 120.179C300.916 120.766 299.305 119.098 298.192 117.757C297.375 116.767 294.381 112.092 297.908 112.683C299.115 112.883 300.401 114.725 301.353 116.028C302.273 117.292 303.666 118.766 302.75 120.179Z" fill="white"/>
<path fill-rule="evenodd" clip-rule="evenodd" d="M359.81 106.662C359.646 108.242 359.72 110.115 359.628 111.952C359.542 113.604 359.772 115.765 358.113 116.62C355.815 115.986 357.024 113.741 356.366 112.356C355.567 113.831 354.929 117.739 352.984 117.884C351.032 116.406 353.193 113.038 353.074 110.719C352.194 111.793 351.417 113.322 350.469 114.658C349.67 115.781 348.766 117.608 346.954 116.82C346.278 114.55 348.221 112.101 349.424 110.073C350.697 107.922 352.194 105.941 353.446 104.384C342.254 98.3042 335.481 89.7056 332.083 79.8337C328.744 70.1289 328.347 57.2857 333.574 44.9062C338.815 32.4906 346.771 24.3275 356.335 18.8204C366.52 12.9553 379.923 9.03676 395.603 15.137C408.182 20.0282 415.402 30.0978 418.943 39.5995C422.834 50.0339 422.972 62.2037 417.967 75.2459C412.956 88.3068 404.088 96.5473 394.558 102.044C384.755 107.695 373.005 110.033 359.81 106.662Z" fill="#F5B91B"/>
<path fill-rule="evenodd" clip-rule="evenodd" d="M373.712 18.6303C373.533 21.15 370.437 22.5608 368.531 23.7525C362.197 27.7259 356.445 31.5816 351.315 38.9337C346.454 45.8917 343.448 56.0307 341.223 64.9447C340.612 67.3922 339.226 72.5747 337.003 72.2273C335.066 71.9227 334.673 68.6816 334.465 66.4117C333.362 54.4383 340.884 39.583 348.561 31.5736C351.753 28.2429 355.056 25.0632 358.781 22.7612C360.539 21.6737 362.97 20.9242 365.096 19.8554C367.418 18.6864 369.544 17.8527 371.748 17.6175C372.343 17.5534 373.527 17.834 373.712 18.6303Z" fill="white"/>
<path fill-rule="evenodd" clip-rule="evenodd" d="M338.229 76.3208C340.177 76.1992 340.499 78.8966 340.958 81.0903C341.203 82.2607 342.136 86.0256 339.968 85.9294C338.013 85.8452 334.975 76.5212 338.229 76.3208Z" fill="white"/>
<path fill-rule="evenodd" clip-rule="evenodd" d="M378.466 147.661C377.772 150.884 375.886 159.121 371.402 154.746C369.419 156.005 367.799 158.761 365.03 157.812C361.026 156.444 364.894 150.735 366.837 148.079C364.641 147.538 362.165 150.218 359.167 148.321C356.176 146.433 359.854 142.795 362.274 141.414C364.251 140.282 366.34 139.916 367.651 138.94C361.082 131.112 357.412 122.595 357.007 112.195C356.582 101.169 360.505 89.1902 368.111 79.6938C374.614 71.5734 383.011 65.8459 392.567 62.2814C402.012 58.753 413.858 57.3208 425.362 60.3402C442.094 64.729 451.963 75.9997 456.173 86.7052C460.647 98.0814 460.796 113.201 452.048 127.777C444.856 139.763 433.189 147.685 421.416 151.459C409.225 155.366 393.941 156.412 378.466 147.661Z" fill="#0FAFF0"/>
<path fill-rule="evenodd" clip-rule="evenodd" d="M420.901 64.0374C422.38 64.3273 423.963 64.6399 423.958 65.7822C423.945 67.7742 421.029 67.8036 420.036 67.996C415.44 68.8858 410.139 69.1489 406.239 70.0989C400.354 71.5351 394.676 74.3621 390.392 77.7984C384.174 82.7898 377.925 91.7691 372.888 101.741C371.484 104.52 369.35 109.343 366.751 108.946C363.678 108.477 363.593 103.645 364.368 100.046C365.231 96.0217 367.224 91.6181 368.808 88.9648C372.988 81.948 377.138 77.9667 382.653 73.964C390.403 68.3367 399.319 64.9419 409.973 64.1349C413.702 63.853 417.232 63.3266 420.901 64.0374Z" fill="white"/>
<path d="M271.997 248.793C270.917 248.438 270.329 247.33 270.677 246.291L310.566 127.855C310.922 126.802 312.11 126.22 313.221 126.556C314.335 126.896 314.944 128.022 314.59 129.075L274.701 247.51C274.346 248.563 273.157 249.144 272.048 248.809L271.997 248.793Z" fill="#314F5F"/>
<path d="M269.701 258.994L269.388 258.866C268.363 258.341 267.977 257.128 268.529 256.151L353.15 106.788C353.702 105.813 354.968 105.448 356.01 105.972C357.038 106.496 357.422 107.71 356.871 108.685L272.252 258.048C271.752 258.927 270.662 259.31 269.701 258.994Z" fill="#314F5F"/>
<path d="M273.824 249.837C273.572 249.753 273.333 249.626 273.119 249.449C272.245 248.717 272.162 247.452 272.93 246.622L370.585 141.482C371.358 140.653 372.683 140.573 373.568 141.304C374.443 142.035 374.527 143.301 373.757 144.131L276.101 249.27C275.516 249.897 274.61 250.097 273.824 249.837Z" fill="#314F5F"/>
<path fill-rule="evenodd" clip-rule="evenodd" d="M366.699 113.355C368.727 112.614 369.138 115.465 369.441 117.025C369.979 119.789 370.358 122.55 370.318 125.798C370.297 127.377 369.934 129.832 368.465 129.8C366.293 129.753 365.501 125.324 365.231 123.755C364.756 121.01 364.622 118.472 364.975 116.477C365.259 114.859 365.693 114.123 366.699 113.355Z" fill="white"/>
<path fill-rule="evenodd" clip-rule="evenodd" d="M431.064 128.159C431.489 126.032 435.445 123.459 439.235 121.709C440.898 120.938 443.58 120.201 443.658 122.716C443.704 124.153 440.324 126.219 438.264 127.459C435.743 128.977 432.166 131.151 431.064 128.159Z" fill="#314F5F"/>
<path fill-rule="evenodd" clip-rule="evenodd" d="M425.633 139.148C425.141 138.806 424.688 138.058 424.627 137.483C425.809 135.43 431.212 133.123 431.212 136.114C431.212 137.557 427.172 139.355 425.633 139.148Z" fill="#314F5F"/>
<path fill-rule="evenodd" clip-rule="evenodd" d="M417.312 137.644C417.939 137.597 418.391 138.687 418.477 139.221C417.564 140.971 415.239 142.738 412.446 144.308C410.594 145.35 406.4 147.795 405.816 144.901C405.554 143.615 409.091 141.484 412.005 139.727C413.794 138.649 416.252 137.14 417.312 137.644Z" fill="#314F5F"/>
<ellipse cx="228.499" cy="307.242" rx="208.705" ry="8.58065" fill="#F3EEEE"/>
<path d="M434.223 260.133C434.129 260.133 434.05 260.112 433.998 260.068C433.418 259.537 434.521 258.822 435.084 258.822C435.178 258.822 435.257 258.843 435.31 258.885C435.902 259.413 434.787 260.133 434.223 260.133Z" fill="#FEF2EB"/>
<path d="M111.122 260.133C111.03 260.133 110.953 260.112 110.903 260.068C110.315 259.537 111.421 258.822 111.985 258.822C112.079 258.822 112.16 258.843 112.212 258.885C112.796 259.413 111.677 260.133 111.122 260.133Z" fill="#FEF2EB"/>
<path d="M370.344 253.864C369.997 253.864 369.645 253.486 369.645 253.112C369.744 252.554 369.993 252.351 370.248 252.351C370.597 252.351 370.954 252.731 370.954 253.112C370.846 253.664 370.597 253.864 370.344 253.864Z" fill="#FEF2EB"/>
<path d="M166.066 253.113C165.002 252.892 164.764 251.957 163.431 251.957C163.679 251.012 164.764 250.786 164.764 249.625C165.814 249.84 166.066 250.786 167.378 250.786C167.123 251.727 166.066 251.957 166.066 253.113Z" fill="#FEF2EB"/>
<path d="M47.3961 253.493C45.6416 253.493 44.0111 250.315 46.5532 249.625C46.5817 249.618 46.6152 249.614 46.6504 249.614C47.3877 249.614 49.4523 251.259 49.1674 251.949C48.6915 253.07 48.0363 253.493 47.3961 253.493Z" fill="#FEF2EB"/>
<path d="M396.144 245.061C396.047 245.061 395.965 245.039 395.911 244.991C395.326 244.484 396.442 243.765 396.994 243.765C397.088 243.765 397.166 243.788 397.217 243.835C397.8 244.341 396.707 245.061 396.144 245.061Z" fill="#FEF2EB"/>
<path d="M380.139 243.837H382.781V241.504H380.139V243.837Z" fill="#FEF2EB"/>
<path d="M118.765 243.659C118.114 243.659 117.471 243.287 117.454 242.665C118.135 242.256 118.812 241.857 119.316 241.857C119.688 241.857 119.966 242.075 120.085 242.665C119.941 243.357 119.351 243.659 118.765 243.659Z" fill="#FEF2EB"/>
<path d="M394.842 241.578C394.744 241.578 394.662 241.554 394.61 241.504C394.031 241.004 395.127 240.287 395.682 240.287C395.778 240.287 395.858 240.308 395.91 240.355C396.481 240.868 395.397 241.578 394.842 241.578Z" fill="#FEF2EB"/>
<path d="M235.499 240.369C234.562 240.369 234.048 239.125 234.066 237.882C234.085 236.639 234.636 235.396 235.833 235.396C236.166 235.396 236.551 235.493 236.987 235.714C237.549 238.141 236.072 238.796 235.672 240.355C235.613 240.365 235.556 240.369 235.499 240.369Z" fill="#FEF2EB"/>
<path d="M151.843 239.267C151.745 239.267 151.667 239.246 151.615 239.199C151.037 238.685 152.122 237.972 152.685 237.972C152.786 237.972 152.87 237.994 152.923 238.045C153.517 238.549 152.399 239.267 151.843 239.267Z" fill="#FEF2EB"/>
<path d="M437.569 234.653C437.276 234.653 436.961 234.624 436.622 234.564V229.919C436.952 229.86 437.259 229.833 437.546 229.833C439.458 229.833 440.416 231.038 440.42 232.243C440.425 233.448 439.474 234.653 437.569 234.653Z" fill="#FEF2EB"/>
<path d="M289.753 229.989C289.654 229.989 289.572 229.967 289.519 229.917C288.949 229.417 290.04 228.705 290.608 228.705C290.709 228.705 290.792 228.727 290.848 228.776C291.416 229.269 290.315 229.989 289.753 229.989Z" fill="#FEF2EB"/>
<path d="M276.363 230.03C274.577 230.03 273.627 229.299 273.783 227.609H277.716V229.918C277.223 229.992 276.772 230.03 276.363 230.03Z" fill="#FEF2EB"/>
<path d="M120.327 227.679C120.226 227.679 120.142 227.657 120.085 227.609C119.52 227.094 120.625 226.384 121.186 226.384C121.283 226.384 121.364 226.406 121.417 226.452C121.994 226.956 120.901 227.679 120.327 227.679Z" fill="#FEF2EB"/>
<path d="M129.322 226.673C127.033 226.673 128.239 223.605 127.978 221.823C130.297 222.09 130.966 223.808 130.599 226.451C130.084 226.604 129.664 226.673 129.322 226.673Z" fill="#FEF2EB"/>
<path d="M111.134 223.037C111.037 223.037 110.956 223.017 110.903 222.969C110.318 222.473 111.409 221.753 111.977 221.753C112.074 221.753 112.158 221.774 112.211 221.823C112.793 222.33 111.69 223.037 111.134 223.037Z" fill="#FEF2EB"/>
<path d="M170.325 217.147C169.783 217.147 169.2 216.832 168.686 216.017V213.699C169.165 213.612 169.586 213.572 169.954 213.572C171.712 213.572 172.26 214.467 172.14 215.36C172.021 216.253 171.235 217.147 170.325 217.147Z" fill="#FEF2EB"/>
<path d="M120.33 216.086C120.227 216.086 120.142 216.064 120.085 216.016C119.52 215.506 120.626 214.789 121.188 214.789C121.283 214.789 121.364 214.812 121.417 214.858C121.994 215.376 120.906 216.086 120.33 216.086Z" fill="#FEF2EB"/>
<path d="M189.943 211.453C189.847 211.453 189.768 211.432 189.716 211.386C189.125 210.878 190.222 210.156 190.789 210.156C190.886 210.156 190.966 210.177 191.022 210.223C191.6 210.739 190.499 211.453 189.943 211.453Z" fill="#FEF2EB"/>
<path d="M144.438 209.822C144.086 209.82 143.727 209.436 143.737 209.059C143.84 208.514 144.089 208.317 144.342 208.317C144.693 208.317 145.053 208.692 145.053 209.059C144.946 209.617 144.693 209.822 144.438 209.822Z" fill="#FEF2EB"/>
<path d="M166.767 206.345C166.418 206.345 166.065 205.965 166.065 205.588C166.17 205.04 166.42 204.84 166.673 204.84C167.022 204.84 167.377 205.218 167.377 205.588C167.27 206.143 167.02 206.345 166.767 206.345Z" fill="#FEF2EB"/>
<path d="M46.554 200.959C46.5741 199.831 48.151 200.061 49.1682 199.794C49.133 200.924 47.5712 200.692 46.554 200.959Z" fill="#FEF2EB"/>
<path d="M80.6689 198.749C78.8792 198.749 77.929 198.019 78.0748 196.315H82.0129V198.639C81.5236 198.711 81.0745 198.749 80.6689 198.749Z" fill="#FEF2EB"/>
<path d="M175.963 194.76C175.614 194.76 175.256 194.375 175.256 193.995C175.361 193.45 175.611 193.253 175.862 193.253C176.214 193.253 176.573 193.634 176.571 193.995C176.467 194.556 176.217 194.76 175.963 194.76Z" fill="#FEF2EB"/>
<path d="M379.071 191.752C378.968 191.752 378.881 191.73 378.824 191.679C378.254 191.172 379.34 190.463 379.903 190.463C380.002 190.463 380.086 190.485 380.14 190.533C380.723 191.038 379.644 191.752 379.071 191.752Z" fill="#FEF2EB"/>
<path d="M312.098 191.752C311.998 191.752 311.914 191.73 311.859 191.679C311.269 191.172 312.363 190.463 312.928 190.463C313.026 190.463 313.11 190.485 313.164 190.533C313.742 191.038 312.659 191.752 312.098 191.752Z" fill="#FEF2EB"/>
<path d="M191.564 185.976C190.043 185.976 189.841 184.801 189.716 183.588C189.85 183.612 189.971 183.625 190.079 183.625C190.85 183.625 190.949 183.041 191.021 182.41C192.556 182.606 192.131 184.523 192.323 185.894C192.04 185.95 191.787 185.976 191.564 185.976Z" fill="#FEF2EB"/>
<path d="M194.947 177.787H197.595V175.456H194.947V177.787Z" fill="#FEF2EB"/>
<path d="M61.9431 173.156C58.0637 173.156 57.6029 168.011 59.6674 166.191C60.6829 166.777 61.7253 167.359 63.4262 167.359C63.4899 167.359 63.5552 167.358 63.6206 167.356C64.0429 170.044 63.4094 171.802 62.3051 173.142C62.1811 173.151 62.0621 173.156 61.9431 173.156Z" fill="#FEF2EB"/>
<path d="M363.301 172.052C363.21 172.052 363.135 172.032 363.085 171.987C362.507 171.475 363.586 170.765 364.15 170.765C364.249 170.765 364.333 170.787 364.388 170.836C364.967 171.335 363.849 172.052 363.301 172.052Z" fill="#FEF2EB"/>
<path d="M289.232 167.507C288.94 167.507 288.625 167.48 288.29 167.418V162.788C288.63 162.726 288.949 162.697 289.244 162.697C291.141 162.697 292.089 163.899 292.087 165.102C292.086 166.305 291.134 167.507 289.232 167.507Z" fill="#FEF2EB"/>
<path d="M172.627 167.361C170.964 165.336 168.186 164.313 168.687 160.391H173.939C174.889 163.94 172.602 164.63 172.627 167.361Z" fill="#FEF2EB"/>
<path d="M88.8131 160.461C88.7142 160.461 88.6321 160.439 88.5768 160.39C87.9819 159.884 89.0913 159.169 89.656 159.169C89.7532 159.169 89.8353 159.191 89.8889 159.239C90.4587 159.748 89.3745 160.461 88.8131 160.461Z" fill="#FEF2EB"/>
<path d="M455.007 159.24H456.506V156.927H455.007V159.24Z" fill="#FEF2EB"/>
<path d="M185.156 153.046C184.809 153.046 184.456 152.659 184.456 152.283C184.551 151.728 184.799 151.526 185.054 151.526C185.403 151.526 185.765 151.907 185.765 152.283C185.659 152.842 185.409 153.046 185.156 153.046Z" fill="#FEF2EB"/>
<path d="M17.6472 153.436H20.2833V151.127H17.6472V153.436Z" fill="#FEF2EB"/>
<path d="M116.384 151.203C116.288 151.203 116.209 151.182 116.156 151.134C115.576 150.616 116.67 149.904 117.227 149.904C117.322 149.904 117.403 149.925 117.454 149.972C118.036 150.483 116.94 151.203 116.384 151.203Z" fill="#FEF2EB"/>
<path d="M8.44192 151.128C5.1038 151.011 5.34007 146.808 7.13314 145.342C10.4847 145.447 10.2417 149.652 8.44192 151.128Z" fill="#FEF2EB"/>
<path d="M350.177 145.409C350.083 145.409 350.004 145.388 349.952 145.342C349.379 144.811 350.458 144.107 351.026 144.107C351.127 144.107 351.211 144.127 351.268 144.177C351.844 144.684 350.735 145.409 350.177 145.409Z" fill="#FEF2EB"/>
<path d="M239.153 144.963C238.71 144.963 238.171 143.855 238.3 143.017C238.392 142.446 238.571 142.224 238.769 142.224C239.213 142.224 239.749 143.335 239.618 144.176C239.528 144.742 239.35 144.963 239.153 144.963Z" fill="#FEF2EB"/>
<path d="M387.421 140.286C387.069 140.286 386.71 139.911 386.715 139.542C386.823 138.987 387.072 138.784 387.325 138.784C387.674 138.784 388.028 139.167 388.028 139.542C387.925 140.087 387.676 140.286 387.421 140.286Z" fill="#FEF2EB"/>
<path d="M251.67 133.814C251.576 133.814 251.499 133.793 251.447 133.747C250.857 133.235 251.96 132.512 252.52 132.512C252.615 132.512 252.694 132.532 252.748 132.579C253.334 133.098 252.223 133.814 251.67 133.814Z" fill="#FEF2EB"/>
<path d="M418.465 132.652C418.369 132.652 418.29 132.631 418.238 132.583C417.654 132.081 418.76 131.361 419.318 131.361C419.413 131.361 419.492 131.382 419.544 131.428C420.134 131.93 419.024 132.652 418.465 132.652Z" fill="#FEF2EB"/>
<path d="M68.395 131.057C67.9476 131.057 67.4164 129.946 67.5471 129.111C67.6409 128.544 67.8219 128.321 68.0214 128.321C68.4654 128.321 69.0034 129.428 68.876 130.253C68.7788 130.831 68.5945 131.057 68.395 131.057Z" fill="#FEF2EB"/>
<path d="M304.672 125.228C304.323 125.228 303.968 124.849 303.969 124.474C304.073 123.924 304.323 123.724 304.578 123.724C304.93 123.724 305.29 124.105 305.288 124.474C305.179 125.026 304.928 125.228 304.672 125.228Z" fill="#FEF2EB"/>
<path d="M345.996 120.985C342.177 119.98 344.523 119.258 344.687 116.375C346.809 117.499 347.705 119.459 345.996 120.985Z" fill="#FEF2EB"/>
<path d="M313.166 117.523C311.541 117.009 310.487 116.043 310.545 114.045C310.767 114.01 310.966 113.994 311.149 113.994C312.707 113.994 312.97 115.148 314.484 115.199C314.234 116.142 313.166 116.366 313.166 117.523Z" fill="#FEF2EB"/>
<path d="M67.5204 115.908C67.2975 115.908 67.7299 115.418 68.2661 114.93C68.8024 114.441 69.4409 113.953 69.6269 113.953C69.7777 113.953 69.6285 114.277 68.8778 115.193C68.0667 115.711 67.6612 115.908 67.5204 115.908Z" fill="#FEF2EB"/>
<path d="M192.323 109.415C192.55 108.053 194.723 108.422 196.271 108.255C196.067 109.605 193.865 109.228 192.323 109.415Z" fill="#FEF2EB"/>
<path d="M170.241 106.007C170.142 106.007 170.058 105.984 170.005 105.937C169.422 105.43 170.528 104.708 171.092 104.708C171.186 104.708 171.267 104.729 171.32 104.775C171.905 105.291 170.808 106.007 170.241 106.007Z" fill="#FEF2EB"/>
<path d="M455.25 103.678C455.148 103.678 455.063 103.656 455.006 103.605C454.434 103.1 455.545 102.38 456.113 102.38C456.205 102.38 456.284 102.399 456.338 102.442C456.913 102.96 455.825 103.678 455.25 103.678Z" fill="#FEF2EB"/>
<path d="M75.4337 95.5017H78.075V93.187H75.4337V95.5017Z" fill="#FEF2EB"/>
<path d="M413.356 94.4265C411.464 94.4265 410.516 93.2264 410.514 92.0247C410.513 90.823 411.456 89.6229 413.346 89.6229C413.638 89.6229 413.953 89.6515 414.29 89.7135V94.339C413.956 94.3994 413.646 94.4265 413.356 94.4265Z" fill="#FEF2EB"/>
<path d="M401.753 71.227C400.27 71.227 400.203 70.2669 400.714 69.3068C401.225 68.3483 402.314 67.3883 403.141 67.3883C403.394 67.3883 403.621 67.4773 403.801 67.6855L402.485 70.0046V71.165C402.21 71.2079 401.967 71.227 401.753 71.227Z" fill="#FEF2EB"/>
<path d="M175.488 59.6442C175.39 59.6442 175.31 59.6219 175.256 59.5758C174.665 59.0672 175.787 58.3519 176.347 58.3519C176.441 58.3519 176.52 58.3726 176.572 58.4187C177.158 58.9257 176.052 59.6442 175.488 59.6442Z" fill="#FEF2EB"/>
<path d="M39.9599 45.6708H42.5926V43.3579H39.9599V45.6708Z" fill="#FEF2EB"/>
<path d="M162.36 43.424C162.263 43.424 162.183 43.4033 162.129 43.3572C161.546 42.8533 162.64 42.1365 163.2 42.1365C163.297 42.1365 163.378 42.1587 163.431 42.2064C164.014 42.7103 162.922 43.424 162.36 43.424Z" fill="#FEF2EB"/>
<path d="M394.607 42.2076C394.641 41.0663 396.208 41.3047 397.216 41.0393C397.179 42.1631 395.623 41.9294 394.607 42.2076Z" fill="#FEF2EB"/>
<path d="M165.3 41.1201C163.773 41.1201 163.571 39.9534 163.431 38.72C163.577 38.747 163.708 38.7597 163.822 38.7597C164.581 38.7597 164.683 38.1827 164.764 37.5739C166.295 37.7504 165.866 39.6641 166.066 41.0391C165.779 41.0947 165.524 41.1201 165.3 41.1201Z" fill="#FEF2EB"/>
<path d="M127.935 40.5872C127.709 40.5872 128.141 40.0976 128.676 39.6081C129.21 39.1169 129.85 38.6273 130.038 38.6273C130.191 38.6273 130.043 38.9564 129.289 39.8799C128.483 40.3917 128.079 40.5872 127.935 40.5872Z" fill="#FEF2EB"/>
<path d="M419.545 38.72C419.587 37.5867 421.172 37.8235 422.173 37.5644C422.151 38.6819 420.572 38.4641 419.545 38.72Z" fill="#FEF2EB"/>
<path d="M229.099 38.72H226.471C225.887 36.242 228.36 36.509 230.416 36.4057C230.18 37.3435 229.099 37.5597 229.099 38.72Z" fill="#FEF2EB"/>
<path d="M326.309 34.0799C326.864 32.7033 327.911 31.7671 330.019 31.7671C330.093 31.7671 330.168 31.7687 330.244 31.7703C330.852 34.242 328.362 33.9845 326.309 34.0799Z" fill="#FEF2EB"/>
<path d="M207.02 34.1544C206.918 34.1544 206.831 34.1306 206.774 34.0797C206.202 33.5711 207.303 32.8479 207.865 32.8479C207.962 32.8479 208.042 32.8701 208.096 32.9178C208.668 33.4423 207.59 34.1544 207.02 34.1544Z" fill="#FEF2EB"/>
<path d="M427.441 32.9178C422.695 31.9704 425.616 30.1139 427.431 30.1139C428.557 30.1139 429.259 30.8292 427.441 32.9178Z" fill="#FEF2EB"/>
<path d="M97.7667 29.4519H100.384V27.1347H97.7667V29.4519Z" fill="#FEF2EB"/>
<path d="M150.303 25.9657H145.052C146.274 23.362 145.543 18.9972 149.768 18.9972C149.937 18.9972 150.117 19.0052 150.303 19.0195V25.9657Z" fill="#FEF2EB"/>
<path d="M270.056 21.4041C269.956 21.4041 269.874 21.3819 269.818 21.3326C269.238 20.8255 270.346 20.1118 270.906 20.1118C271.005 20.1118 271.085 20.1325 271.137 20.1802C271.72 20.6872 270.623 21.4041 270.056 21.4041Z" fill="#FEF2EB"/>
<path d="M144.639 17.5911C143.687 17.5911 142.662 17.2208 142.415 16.7106C141.81 15.4358 143.071 14.7618 144.337 14.7618C145.562 14.7618 146.794 15.3897 146.362 16.7106C146.157 17.34 145.423 17.5911 144.639 17.5911Z" fill="#FEF2EB"/>
<path d="M130.6 17.8651C127.733 17.695 127.773 14.9403 127.979 12.0633C128.454 11.9346 128.849 11.8757 129.177 11.8757C131.906 11.8757 130.089 15.9147 130.6 17.8651Z" fill="#FEF2EB"/>
<path d="M453.936 5.18661C453.843 5.18661 453.766 5.16752 453.716 5.12301C453.116 4.61278 454.231 3.89591 454.785 3.89591C454.879 3.89591 454.958 3.9166 455.008 3.9611C455.598 4.47293 454.49 5.18661 453.936 5.18661Z" fill="#FEF2EB"/>
<path d="M441.884 5.12155C437.141 4.16784 440.062 2.30652 441.879 2.30652C443.005 2.30652 443.707 3.02339 441.884 5.12155Z" fill="#FEF2EB"/>
<path d="M227.791 5.12155C225.085 4.46508 225.026 3.30157 226.473 1.64052H229.1C229.477 3.51615 227.87 3.63535 227.791 5.12155Z" fill="#FEF2EB"/>
<path d="M247.728 4.02997C247.633 4.02997 247.552 4.00773 247.5 3.96163C246.914 3.44822 248.037 2.72816 248.595 2.72816C248.687 2.72816 248.764 2.74722 248.816 2.79173C249.397 3.31468 248.288 4.02997 247.728 4.02997Z" fill="#FEF2EB"/>
<path d="M45.9583 2.36212C45.7421 2.36212 45.4957 2.17932 45.1891 1.99652C44.8841 1.81373 44.5154 1.63093 44.0546 1.63093C44.006 1.63093 43.9574 1.63252 43.9071 1.63729C44.0579 0.945852 44.6545 0.647026 45.241 0.647026C45.8962 0.647026 46.5431 1.01897 46.5514 1.63729C46.3604 2.17932 46.1744 2.36212 45.9583 2.36212Z" fill="#FEF2EB"/>
<path d="M350.731 360.542C350.385 360.542 350.023 360.159 350.023 359.787C350.13 359.235 350.378 359.034 350.629 359.034C350.976 359.034 351.33 359.417 351.321 359.787C351.227 360.34 350.983 360.542 350.731 360.542Z" fill="#FEF2EB"/>
<path d="M394.891 356.382C394.794 356.382 394.712 356.361 394.655 356.315C394.092 355.804 395.204 355.086 395.764 355.086C395.858 355.086 395.935 355.105 395.987 355.15C396.57 355.66 395.466 356.382 394.891 356.382Z" fill="#FEF2EB"/>
<path d="M352.659 355.154C352.851 353.794 355.042 354.172 356.597 353.995C356.384 355.35 354.194 354.977 352.659 355.154Z" fill="#FEF2EB"/>
<path d="M355.282 351.671C355.316 350.555 356.886 350.766 357.902 350.513C357.878 351.64 356.295 351.415 355.282 351.671Z" fill="#FEF2EB"/>
<path d="M77.0725 351.743C76.9737 351.743 76.8916 351.72 76.8379 351.67C76.2464 351.156 77.3541 350.446 77.9188 350.446C78.016 350.446 78.0964 350.466 78.15 350.512C78.7215 351.021 77.6306 351.743 77.0725 351.743Z" fill="#FEF2EB"/>
<path d="M423.286 350.541C422.341 350.541 421.929 349.578 422.013 348.615C422.095 347.652 422.671 346.69 423.704 346.69C424.045 346.69 424.438 346.796 424.88 347.043V349.359C424.736 349.331 424.608 349.319 424.495 349.319C423.73 349.319 423.635 349.91 423.566 350.514C423.469 350.532 423.375 350.541 423.286 350.541Z" fill="#FEF2EB"/>
<path d="M268.581 350.513C269.139 349.132 270.223 348.196 272.355 348.196C272.413 348.196 272.472 348.196 272.531 348.197C273.147 350.675 270.649 350.408 268.581 350.513Z" fill="#FEF2EB"/>
<path d="M348.934 349.43C348.84 349.43 348.762 349.41 348.708 349.364C348.123 348.845 349.226 348.132 349.792 348.132C349.888 348.132 349.966 348.152 350.022 348.198C350.602 348.713 349.494 349.431 348.934 349.43Z" fill="#FEF2EB"/>
<path d="M190.022 345.939C189.921 345.939 189.838 345.917 189.782 345.868C189.187 345.364 190.305 344.653 190.86 344.653C190.955 344.653 191.034 344.674 191.084 344.72C191.669 345.232 190.59 345.939 190.022 345.939Z" fill="#FEF2EB"/>
<path d="M330.313 344.722C330.392 340.971 331.733 339.71 332.934 339.71C335.054 339.71 336.743 343.638 330.313 344.722Z" fill="#FEF2EB"/>
<path d="M439.325 341.229H436.716V337.771H440.644C441.007 339.642 439.404 339.763 439.325 341.229Z" fill="#FEF2EB"/>
<path d="M378.91 341.233C377.849 341.029 377.591 340.09 376.291 340.09C376.537 339.144 377.591 338.934 377.591 337.771C378.655 337.972 378.908 338.928 380.21 338.928C380.214 338.928 380.219 338.928 380.222 338.928C379.974 339.867 378.91 340.09 378.91 341.233Z" fill="#FEF2EB"/>
<path d="M406.722 339.003C406.629 339.003 406.552 338.982 406.501 338.936C405.91 338.426 407.004 337.703 407.58 337.703C407.681 337.703 407.767 337.724 407.823 337.773C408.392 338.284 407.275 339.003 406.722 339.003Z" fill="#FEF2EB"/>
<path d="M359.212 337.772H356.588C355.978 335.297 358.477 335.558 360.531 335.45C360.283 336.393 359.212 336.605 359.212 337.772Z" fill="#FEF2EB"/>
<path d="M258.779 336.207C258.429 336.207 258.079 335.824 258.087 335.449C258.188 334.894 258.434 334.692 258.687 334.692C259.037 334.692 259.401 335.081 259.401 335.449C259.287 336.004 259.034 336.207 258.779 336.207Z" fill="#FEF2EB"/>
<path d="M162.206 335.449H164.828V333.138H162.206V335.449Z" fill="#FEF2EB"/>
<path d="M105.951 332.046C105.856 332.046 105.777 332.025 105.725 331.979C105.145 331.462 106.245 330.744 106.799 330.744C106.893 330.744 106.972 330.765 107.024 330.811C107.609 331.324 106.509 332.046 105.951 332.046Z" fill="#FEF2EB"/>
<path d="M0.88608 330.881C0.78721 330.881 0.706751 330.859 0.653126 330.811C0.0800159 330.307 1.18434 329.588 1.73734 329.588C1.83286 329.588 1.90996 329.611 1.96191 329.657C2.53669 330.169 1.44578 330.881 0.88608 330.881Z" fill="#FEF2EB"/>
<path d="M209.47 326.181H213.42V322.716H209.47V326.181Z" fill="#FEF2EB"/>
<path d="M426.422 315.823C426.325 315.823 426.243 315.8 426.188 315.755C425.613 315.244 426.731 314.53 427.299 314.53C427.393 314.53 427.473 314.549 427.527 314.594C428.093 315.103 426.992 315.823 426.422 315.823Z" fill="#FEF2EB"/>
<path d="M243.64 315.755H239.711C239.138 313.336 240.6 312.674 241.009 311.123C243.303 311.385 243.997 313.111 243.64 315.755Z" fill="#FEF2EB"/>
<path d="M430.152 311.123H432.777V308.788H430.152V311.123Z" fill="#FEF2EB"/>
<path fill-rule="evenodd" clip-rule="evenodd" d="M51.2705 156.64H51.7079C54.8432 172.015 59.5974 185.85 62.654 201.296C50.3522 203.753 37.5846 206.365 25.2141 208.981C23.5735 209.328 21.6112 210.024 19.9589 209.188C20.3695 206.368 22.6535 204.241 24.3377 202.335C26.0956 200.344 27.9724 198.477 29.5928 196.518C32.9092 192.514 36.4719 188.591 38.3521 183.228C36.0177 182.113 32.8338 182.361 29.8124 182.188C23.607 181.832 18.6903 181.611 12.2956 180.94C10.6216 180.765 5.20215 180.723 4.85024 179.073C4.54358 177.602 7.87667 176.197 9.67141 175.333C19.4478 170.637 28.5874 166.089 38.5733 161.836C43.0023 159.944 47.2822 158.385 51.2705 156.64Z" fill="#F5B91B"/>
<path d="M83.2807 283.997L49.4287 157.083L53.117 156.198L86.9674 283.112L83.2807 283.997Z" fill="#314F5F"/>
<path d="M214.567 252.407C214.257 260.09 210.124 306.821 208.566 306.92C207.001 307.017 34.3353 307.158 34.3353 307.158L34.1644 258.295L214.567 252.407Z" fill="#F89CAA"/>
<path d="M29.169 250.653L218.066 247.933L216.179 263.135L29.6969 267.578L29.169 250.653Z" fill="#EF2A5E"/>
<path fill-rule="evenodd" clip-rule="evenodd" d="M194.516 289.712C192.966 290.627 190.514 290.608 190.213 289.032C189.651 286.105 196.135 285.739 194.516 289.712Z" fill="#ED1639"/>
<path fill-rule="evenodd" clip-rule="evenodd" d="M179.699 291.75C183.487 291.357 186.287 291.658 186.391 294.246C186.491 296.819 182.389 297.639 179.22 297.873C176.024 298.103 172.036 298.043 171.812 295.608C171.507 292.331 176.874 292.046 179.699 291.75Z" fill="#ED1639"/>
<path fill-rule="evenodd" clip-rule="evenodd" d="M198.577 293.338C201.26 293.001 203.01 293.892 202.401 295.832C201.55 298.545 195.576 298.277 195.47 295.608C195.403 293.939 196.679 293.576 198.577 293.338Z" fill="#ED1639"/>
<path d="M84.0328 162.836C83.897 170.28 90.2146 250.105 91.6022 249.69C92.9981 249.274 187.159 249.511 187.159 249.511L181.904 162.251L84.0328 162.836Z" fill="#0FAFF0"/>
<path d="M71.7866 142.646C72.2374 145.544 72.2977 165.419 73.2093 165.727C74.1343 166.031 184.823 166.896 184.823 166.896L184.745 145.443C184.745 145.443 71.5134 140.883 71.7866 142.646Z" fill="#0FAFF0"/>
<path d="M192.216 181.987H78.5192V173.864H192.216V181.987Z" fill="white"/>
<path d="M192.216 243.654H78.5192V235.531H192.216V243.654Z" fill="white"/>
<path d="M192.135 201.095L78.4514 199.245L78.5956 191.126L192.279 192.976L192.135 201.095Z" fill="white"/>
<path d="M78.8236 226.451L78.3443 218.34L191.906 212.298L192.387 220.409L78.8236 226.451Z" fill="white"/>
<path d="M104.591 140.752L105.91 250.146L123.444 250.432L110.289 140.717" fill="#0FF0C0"/>
<path fill-rule="evenodd" clip-rule="evenodd" d="M60.9993 144.306C62.8074 146.492 66.6047 146.856 69.7367 147.072C79.8985 147.755 89.3867 144.98 96.3846 143.508C86.1105 141.35 70.1841 141.022 60.9993 144.306ZM117.608 145.093C131.19 151.898 152.276 146.643 157.982 136.406C142.104 135.433 130.632 142.039 117.608 145.093ZM123.435 120.618C118.066 125.656 113.601 132.806 110.954 139.959C114.463 139.585 117.808 137.301 120.524 135.615C129.474 130.062 138.329 123.002 141.749 112.716C134.005 112.034 127.72 116.594 123.435 120.618ZM86.8077 123.38C90.7021 127.629 94.6787 132.326 99.2988 134.826C95.0239 123.221 88.6259 113.63 77.229 108.764C78.6383 114.623 83.0171 119.231 86.8077 123.38ZM105.12 136.01C106.533 134.952 107.18 132.862 108.038 131.272C110.454 126.751 113.732 121.833 117.608 117.849C122.548 112.775 130.029 107.526 136.757 106.398C142.059 105.509 147.48 107.294 147.996 112.32C148.95 121.536 137.451 128.805 133.426 134.038C139.817 132.434 162.344 124.939 164.231 135.22C165.404 141.575 157.426 146.22 152.164 149.04C146.446 152.101 139.153 154.562 131.765 154.57C121.855 154.578 114.763 150.278 108.45 146.67C97.2761 149.245 84.2069 154.026 68.9072 152.99C63.4794 152.621 53.9594 150.64 53.9225 144.699C53.8555 134.5 78.7338 135.743 90.553 136.406C87.9438 132.936 83.0958 128.646 78.8997 123.771C75.3974 119.711 68.5352 111.5 70.9935 105.606C73.7334 99.016 83.0825 104.425 87.2216 107.579C95.7629 114.089 103.441 124.342 105.12 136.01Z" fill="#0FF0C0"/>
<path d="M62.9143 250.365L67.2177 307.108L56.2113 307.158L60.2633 250.235L62.9143 250.365Z" fill="white"/>
<path fill-rule="evenodd" clip-rule="evenodd" d="M57.7614 257.595C57.7982 257.424 57.6776 257.412 57.5486 257.398C47.6431 258.865 37.1797 261.53 29.0724 265.284C26.4062 266.518 23.539 267.78 22.2084 270.217C29.4343 272.298 36.9048 268.968 43.4168 266.076C49.2267 263.492 53.9055 260.64 57.7614 257.595ZM67.7355 256.61C67.5378 256.61 67.5746 256.85 67.5294 257.002C67.4842 266.162 67.7205 275.284 71.8981 280.667C72.183 281.034 72.7159 281.922 73.3493 281.652C75.8881 271.946 70.4704 263.851 67.7355 256.61ZM72.5198 254.438C81.0947 260.171 87.5447 267.93 101.003 269.03C98.6282 265.232 94.4069 262.382 90.1924 259.961C85.2757 257.142 80.0289 254.602 72.5198 254.438ZM38.6359 224.073C38.0041 224.439 38.4851 225.397 38.6359 225.846C39.9212 229.695 43.4001 233.21 46.1132 236.098C49.4664 239.657 53.1933 242.966 57.133 245.562C56.8431 243.912 55.6181 242.442 54.6444 240.833C52.0185 236.522 48.7944 231.501 45.0759 228.014C43.4085 226.451 40.9216 224.725 38.6359 224.073ZM86.2426 222.495C81.4047 224.113 78.4 228.764 76.054 232.943C73.5923 237.328 71.697 242.415 70.2324 247.536C70.2743 247.706 70.1536 247.719 70.0263 247.731C70.1168 248.021 70.2039 247.714 70.4402 247.731C76.6254 243.742 82.6196 237.94 85.827 230.579C86.8375 228.249 88.1731 225.157 86.2426 222.495ZM77.093 223.482C78.9229 221.45 81.7063 218.59 84.3708 218.152C90.1673 217.202 92.3943 221.876 91.8531 226.833C90.7621 236.856 80.8601 245.079 75.6384 250.1C83.0754 251.189 88.5686 253.535 94.1405 257.002C96.3994 258.404 99.0371 260.114 101.412 262.327C103.491 264.255 106.571 267.335 105.784 270.608C104.748 274.894 97.5121 273.564 93.5154 272.383C86.4286 270.288 79.8412 265.368 75.4306 262.521C76.9237 267.051 79.3687 272.457 78.757 279.083C78.447 282.462 76.9773 286.637 73.5571 286.78C69.4163 286.947 66.7519 281.406 65.4464 278.102C63.097 272.09 62.7267 266.248 62.7451 259.37C58.6797 262.705 53.4882 266.411 47.5677 269.227C41.8785 271.946 35.3028 274.876 28.4523 275.338C27.6295 275.399 25.2751 275.464 24.0819 275.338C18.5838 274.778 15.4383 270.335 19.0932 266.27C20.9684 264.183 24.3568 262.354 27.6128 260.947C35.7687 257.416 45.0071 254.74 54.8506 253.254C56.8766 252.947 59.0283 252.855 60.8733 252.071C54.0797 249.711 49.2418 245.858 44.0386 240.436C40.8027 237.066 37.1395 233.246 34.8872 228.411C33.2936 224.98 33.0539 220.281 36.9736 219.534C41.178 218.733 44.6821 222.009 46.951 223.871C54.5691 230.152 58.5373 238.449 63.3702 246.748C63.7455 247.388 64.1259 248.673 65.2436 248.523C67.8712 239.016 71.0954 230.123 77.093 223.482Z" fill="white"/>
<path fill-rule="evenodd" clip-rule="evenodd" d="M253.063 31.0655L252.629 31.0877C250.307 46.5903 246.288 60.6337 244.044 76.203C256.464 78.0723 269.354 80.0783 281.845 82.1033C283.504 82.3719 285.5 82.9744 287.105 82.062C286.547 79.266 284.151 77.2537 282.371 75.4242C280.511 73.5199 278.54 71.7508 276.816 69.864C273.295 66.0222 269.53 62.2741 267.366 57.0064C269.643 55.7793 272.836 55.881 275.84 55.5631C282.019 54.9178 286.919 54.46 293.273 53.4904C294.934 53.2329 300.348 52.9341 300.606 51.2683C300.839 49.7868 297.436 48.5406 295.598 47.7665C285.587 43.5353 276.216 39.4311 266.022 35.6528C261.499 33.9743 257.141 32.6216 253.063 31.0655Z" fill="#0FAFF0"/>
<path d="M227.802 159.779L224.072 159.069L251.198 30.7104L254.928 31.4178L227.802 159.779Z" fill="#0FF0C0"/>
<path d="M287.151 157.315C287.239 162.003 283.266 212.257 282.391 211.996C281.512 211.737 194.736 213.311 194.736 213.311L198.045 156.35L287.151 157.315Z" fill="#F5B91B"/>
<path d="M294.862 144.6C294.577 146.424 294.543 158.945 293.963 159.137C293.392 159.331 196.21 159.268 196.21 159.268L196.255 145.761C196.255 145.761 295.034 143.498 294.862 144.6Z" fill="#50C3A7"/>
<path d="M274.209 143.412L273.381 212.281L262.346 212.461L270.628 143.394" fill="#EF2A5E"/>
<path d="M242.658 140.887C248.813 140.682 253.951 142.368 258.911 144.01C260.842 144.651 262.824 145.307 264.845 145.841C262.739 146.681 260.291 147.121 257.69 147.121C251.324 147.121 245.17 144.535 242.658 140.887ZM252.299 126.584C255.64 126.479 258.92 128.018 262.38 131.261C265.293 133.999 267.868 137.894 269.527 142.039C267.999 141.666 266.536 140.753 265.221 139.927L264.733 139.625C260.113 136.756 254.571 132.699 252.299 126.584ZM283.622 133.246C281.908 135.131 280.15 137.069 278.229 138.406C280.984 131.54 284.725 127.118 289.881 124.625C288.889 127.494 286.699 129.891 284.738 132.024L283.622 133.246ZM299.535 145.423C298.464 146.178 296.71 146.358 295.109 146.463C294.478 146.504 293.826 146.525 293.174 146.525C288.839 146.525 284.701 145.579 281.377 144.824L281.348 144.815C283.875 144.435 286.734 144.222 289.494 144.222C293.445 144.222 296.968 144.646 299.535 145.423ZM303.939 142.659C301.895 140.715 297.387 139.768 290.154 139.768C287.728 139.768 285.321 139.876 283.577 139.968C284.353 139.056 285.34 138.048 286.365 136.994C287.562 135.767 288.799 134.502 289.982 133.127C291.915 130.882 296.447 125.62 294.83 121.716C294.241 120.293 293.099 119.541 291.532 119.541C289.258 119.541 286.297 121.18 284.286 122.714C278.628 127.033 274.642 133.136 273.469 139.205C273.227 138.835 273.025 138.402 272.825 137.975C272.696 137.698 272.572 137.428 272.436 137.177C271.252 134.96 269.274 131.734 266.58 128.965C263.741 126.042 259.146 122.652 254.754 121.91C254.202 121.819 253.649 121.77 253.11 121.77C249.849 121.77 247.665 123.351 247.412 125.888C246.972 130.167 250.668 133.707 253.634 136.547C254.241 137.126 254.826 137.687 255.335 138.215L255.251 138.193C252.399 137.409 247.622 136.098 243.799 136.098C240.128 136.098 238.043 137.304 237.606 139.685C236.808 144.037 242.434 147.054 245.138 148.504C247.501 149.769 252.277 151.891 257.685 151.894H257.708C263.58 151.894 267.815 149.462 271.552 147.32L271.833 147.158C273.199 147.477 274.598 147.843 276.078 148.232C281.08 149.545 286.751 151.034 293.042 151.034C293.923 151.03 294.811 151.001 295.684 150.942C297.261 150.834 305.142 150.065 305.171 145.485C305.179 144.397 304.764 143.449 303.939 142.659Z" fill="#EF2A5E"/>
<path fill-rule="evenodd" clip-rule="evenodd" d="M255.817 165.768C258.198 165.907 261.622 165.996 261.89 168.078C262.378 171.869 256.62 171.8 254.094 171.901C251.443 172.006 245.183 172.304 244.549 169.966C243.747 166.995 248.708 166.077 250.58 165.833C252.226 165.622 253.959 165.657 255.817 165.768Z" fill="white"/>
<path fill-rule="evenodd" clip-rule="evenodd" d="M234.945 167.031C237.241 167.144 239.588 167.181 239.453 169.314C239.263 172.363 229.39 173.13 229.789 169.341C230.02 167.17 232.425 166.911 234.945 167.031Z" fill="white"/>
<path fill-rule="evenodd" clip-rule="evenodd" d="M247.569 177.19C245.546 178.102 242.736 177.376 242.616 175.819C242.337 172.256 250.396 173.786 247.569 177.19Z" fill="white"/>
<path fill-rule="evenodd" clip-rule="evenodd" d="M225.008 198.23C223.458 199.144 221.005 199.128 220.705 197.548C220.143 194.621 226.627 194.254 225.008 198.23Z" fill="#50C3A7"/>
<path fill-rule="evenodd" clip-rule="evenodd" d="M210.187 200.266C213.976 199.872 216.778 200.172 216.88 202.762C216.98 205.335 212.88 206.154 209.708 206.389C206.515 206.619 202.527 206.559 202.299 204.122C201.999 200.848 207.367 200.56 210.187 200.266Z" fill="#50C3A7"/>
<path fill-rule="evenodd" clip-rule="evenodd" d="M229.071 201.856C231.75 201.52 233.502 202.407 232.892 204.351C232.044 207.063 226.068 206.793 225.962 204.124C225.895 202.457 227.171 202.096 229.071 201.856Z" fill="#50C3A7"/>
<path d="M229.397 231.517C230.679 239.647 232.313 305.945 232.313 305.945L377.07 303.583L379.215 225.175L229.397 231.517Z" fill="#ED1639"/>
<path d="M217.65 244.802C217.975 244.827 389.642 239.553 389.642 239.553L387.321 210.44L218.066 212.9L217.65 244.802Z" fill="#EF2A5E"/>
<path fill-rule="evenodd" clip-rule="evenodd" d="M263.936 258.284C265.392 256.601 266.899 254.963 266.912 252.023C264.96 253.267 264.397 255.734 263.936 258.284ZM326.025 257.71C328.932 255.917 329.74 249.474 326.44 247.337C323.045 248.937 324.357 255.065 326.025 257.71ZM348.705 257.333C350.365 255.687 352.835 251.336 350.224 248.858C347.029 249.657 347.428 254.76 348.705 257.333ZM246.828 261.199L247.006 261.359C247.986 257.347 246.037 248.508 241.037 249.446C238.247 249.968 238.505 253.73 239.949 255.961C241.491 258.336 244.824 260.301 246.828 261.199ZM287.41 260.633C288.788 259.562 288.122 252.766 285.897 253.081C284.523 253.28 284.928 255.373 285.374 256.826C285.989 258.808 286.76 259.536 287.41 260.633ZM302.123 253.437C301.658 257.406 304.761 259.153 306.881 261.026C309.968 257.629 306.869 251.156 302.123 253.437ZM273.833 274.422C266.661 274.462 262.294 270.336 259.963 265.235C257.387 266.341 252.724 266.886 249.592 266.114C247.616 269.078 244.967 271.543 240.797 271.952C233.459 272.667 226.486 267.762 225.496 261.202C225.142 258.867 225.528 256.106 226.761 254.844C227.654 253.934 229.809 253.51 230.347 254.868C230.915 256.306 229.097 257.417 228.976 258.805C228.268 266.893 241.964 271.995 245.612 264.813C241.272 262.647 235.083 258.923 234.865 252.758C234.696 248.017 239.301 244.047 244.482 246.077C249.727 248.135 251.82 255.662 250.981 262.664C254.15 262.962 257.721 262.504 259.623 261.199C259.98 256.846 260.898 251.943 263.567 249.56C266.788 246.687 271.149 248.469 270.881 253.006C270.606 257.664 266.334 261.398 263.65 263.64C265.208 267.671 268.338 270.921 274.358 270.675C277.979 270.533 281.584 268.705 283.742 266.598C284.469 265.886 285.905 264.742 285.86 264.256C285.838 264.025 284.632 263.152 284.258 262.693C282.152 260.121 279.467 254.37 282.227 250.958C282.819 250.226 284.68 248.888 286.936 249.32C291.571 250.204 293.5 258.095 290.765 263.257C292.538 264.27 294.663 265.306 297.854 265.416C299.844 265.483 304.158 264.683 304.275 263.876C304.315 263.576 303.022 262.944 302.328 262.334C300.382 260.596 298.539 258.227 298.122 255.528C297.456 251.312 300.324 248.89 304.677 249.295C310.93 249.871 314 256.832 310.7 262.499C315.069 263.691 320.629 262.442 323.231 260.242C319.796 256.375 319.379 247.944 323.092 244.873C325.418 242.945 328.823 243.84 330.286 245.566C332.778 248.505 333.135 253.854 331.297 257.184C330.881 257.934 328.493 260.43 328.547 260.853C328.582 261.162 330.256 262.309 331.191 262.851C332.309 263.51 333.671 264.025 334.487 264.188C339.503 265.173 343.528 262 345.918 260.029C342.459 255.69 343.397 245.973 349.212 245.172C353.569 244.576 355.667 248.66 355.329 252.55C355.029 255.933 352.557 258.331 351.232 260.636C356.416 265.015 363.768 268.472 372.958 265.961C378.475 264.456 382.674 260.82 385.9 257.215C386.907 256.091 388.412 253.792 389.848 253.83C390.567 253.841 391.431 254.37 391.617 255.214C391.984 256.885 389.344 259.239 388.085 260.53C386.356 262.302 384.785 263.613 383.314 264.761C379.902 267.411 375.909 269.671 370.24 270.274C359.624 271.399 353.851 267.387 348.1 263.181C345.576 265.241 342.263 267.425 338.06 267.933C332.426 268.611 328.423 265.816 325.405 263.237C322.001 266.419 313.607 267.697 308.274 265.667C304.456 270.062 293.404 269.885 288.858 266.565C285.983 270.739 280.61 274.381 273.833 274.422Z" fill="white"/>
<path fill-rule="evenodd" clip-rule="evenodd" d="M269.764 222.247C271.485 220.566 273.583 216.504 271.618 213.594C269.231 214.932 269.583 218.663 269.764 222.247ZM328.158 223.104C329.803 221.451 331.876 216.263 329.146 214.165C326.641 215.311 327.352 220.435 328.158 223.104ZM312.392 225.484L312.551 225.314C311.739 220.982 310.13 216.414 305.823 215.533C304.876 217.695 306.418 219.788 307.603 221.298C308.835 222.856 310.42 224.389 312.037 225.17C312.084 225.345 312.379 225.269 312.392 225.484ZM259.45 228.464C262.014 222.38 257.151 215.989 251.255 216.315C247.701 216.508 244.842 219.85 245.926 223.478C247.274 227.993 253.844 230.142 259.45 228.464ZM376.411 226.29L376.577 226.12C377.861 224.269 379.937 221.524 379.652 218.232C379.51 216.527 378.521 214.772 376.783 214.943C372.565 215.366 373.687 224.274 376.411 226.29ZM353.071 227.175C354.814 225.973 355.402 216.368 351.766 216.38C349.686 216.39 349.227 219.28 349.597 221.642C350.008 224.264 351.987 225.989 353.071 227.175ZM289.629 232.012C289.905 232.048 289.915 231.848 290.131 231.831C291.618 229.848 293.974 226.259 293.17 222.813C292.975 222.005 292.238 220.852 291.546 220.77C289.825 220.582 288.653 223.327 288.496 225.419C288.288 228.206 289.076 230.35 289.629 232.012ZM230.558 235.386C230.597 235.572 230.732 235.475 230.729 235.385L231.069 235.37C233.757 232.342 236.847 228.186 235.332 223.23C234.402 220.168 229.125 214.874 224.316 216.852C222.819 217.466 221.527 218.997 221.041 220.049C218.049 226.487 225.514 233.742 230.558 235.386ZM299.457 242.482C294.579 242.235 291.635 239.921 288.662 237.392C286.606 238.225 284.829 238.993 282.247 239.09C274.813 239.374 269.818 234.164 267.316 228.978C265.712 229.957 264.018 230.858 261.96 231.444C257.548 239.331 242.583 243.806 231.416 239.562C227.622 241.784 224.016 243.312 218.6 243.126C213.824 242.965 208.947 240.551 206.627 238.403C205.45 237.311 203.93 235.661 202.851 233.85C201.899 232.257 200.465 228.41 203.309 228.491C204.678 228.529 204.678 230.074 205.303 231.331C205.888 232.496 207.176 234.073 208.192 235.105C212.026 238.985 220.458 241.36 226.907 237.794C222.28 234.714 216.081 230.227 216.693 222.157C217.053 217.407 220.865 212.953 226.538 212.88C232.316 212.807 237.745 217.894 239.078 222.926C240.199 227.149 238.464 231.544 236.986 234.011C236.353 235.07 235.156 235.822 235.056 236.839C242.392 238.861 252.514 236.603 255.7 232.654C249.276 232.546 243.837 229.526 242.213 224.426C240.097 217.779 245.911 213.012 251.106 212.759C258.62 212.383 264.599 219.044 263.979 226.676C264.971 226.299 265.804 225.784 266.471 225.124C265.335 219.794 265.513 212.68 269.273 210.61C270.863 209.73 273.206 210.119 274.232 210.909C278.854 214.462 274.602 222.507 272.434 224.897C271.797 225.595 270.766 226.035 270.815 226.901C272.196 232.926 280.052 237.939 286.649 234.232C283.639 229.432 284.246 220.67 288.524 217.973C292.647 215.366 296.345 219.072 296.91 222.67C297.726 227.868 294.331 232.679 291.985 235.321C293.984 237.222 296.303 238.734 299.645 238.92C306.539 239.285 310.738 234.318 312.042 229.381C308.106 227.402 301.647 222.363 301.607 216.665C301.573 211.901 306.817 210.963 310.165 213.263C313.848 215.799 316.283 221.496 316.379 227.113C319.244 227.745 323.338 227.488 325.207 225.965C323.07 221.201 322.758 212.953 327.136 211.003C328.32 210.472 329.653 210.542 330.361 210.719C333.106 211.399 334.517 214.565 334.254 218.014C334.098 220.122 333.142 222.583 332.129 224.247C331.432 225.39 330.231 226.196 330.036 227.242C332.572 231.087 337.267 235.957 344.661 234.131C346.12 233.77 351.24 231.279 351.148 230.158C351.132 229.92 349.941 229.181 349.38 228.61C348.728 227.947 348.007 227.229 347.773 226.89C345.276 223.33 344.967 216.527 348.247 213.921C349.864 212.643 353.329 212.589 354.891 213.67C358.967 216.498 359.012 224.962 356.401 229.313C360.416 231.948 370.211 232.695 373.79 228.814C369.206 225.086 368.797 214.168 374.437 211.798C379.657 209.598 383.279 214.285 383.414 218.412C383.555 222.513 381.008 226.374 379.416 228.763C382.171 229.939 383.49 230.917 386.682 231.077C393.568 231.425 397.084 227.84 400.588 225.047C401.764 224.108 402.947 222.856 404.087 222.973C404.909 223.052 405.616 223.934 405.687 224.53C405.843 225.846 404.092 226.813 402.756 227.877C399.192 230.725 395.527 233.904 390.07 234.51C383.838 235.197 380.239 233.234 376.624 231.298C373.879 233.781 369.266 235.413 363.992 235.178C360.282 235.01 356.818 233.35 354.311 232.304C351.059 235.537 346.871 238.403 340.393 238.012C333.946 237.627 329.646 233.25 326.884 229.302C324.228 230.891 319.07 231.517 315.501 230.542C313.77 236.875 308.399 242.936 299.457 242.482Z" fill="#F89CAA"/>
<path fill-rule="evenodd" clip-rule="evenodd" d="M277.84 286.946C279.559 285.264 281.661 281.203 279.688 278.294C277.304 279.633 277.654 283.365 277.84 286.946ZM336.232 287.801C337.881 286.15 339.951 280.96 337.221 278.865C334.717 280.008 335.429 285.134 336.232 287.801ZM320.463 290.181L320.629 290.012C319.813 285.682 318.204 281.111 313.901 280.232C312.952 282.392 314.492 284.487 315.677 285.994C316.91 287.555 318.494 289.086 320.111 289.869C320.158 290.045 320.453 289.968 320.463 290.181ZM267.522 293.163C270.09 287.081 265.225 280.687 259.328 281.014C255.774 281.206 252.917 284.55 254.001 288.175C255.348 292.695 261.919 294.838 267.522 293.163ZM384.487 290.985L384.653 290.821C385.932 288.968 388.011 286.222 387.728 282.932C387.584 281.226 386.597 279.469 384.863 279.642C380.64 280.065 381.756 288.973 384.487 290.985ZM361.149 291.873C362.887 290.672 363.473 281.065 359.838 281.079C357.764 281.084 357.301 283.979 357.675 286.341C358.082 288.964 360.063 290.686 361.149 291.873ZM297.703 296.71C297.979 296.745 297.991 296.545 298.207 296.531C299.692 294.547 302.05 290.958 301.24 287.512C301.048 286.703 300.314 285.55 299.618 285.471C297.897 285.277 296.728 288.024 296.568 290.116C296.362 292.908 297.152 295.051 297.703 296.71ZM238.632 300.085C238.673 300.271 238.807 300.171 238.805 300.082L239.147 300.069C241.833 297.039 244.92 292.884 243.412 287.928C242.475 284.864 237.2 279.571 232.392 281.55C230.894 282.165 229.598 283.695 229.112 284.746C226.123 291.185 233.585 298.441 238.632 300.085ZM307.53 307.179C302.65 306.933 299.707 304.618 296.736 302.089C294.682 302.925 292.904 303.69 290.325 303.789C282.886 304.072 277.894 298.862 275.392 293.673C273.786 294.655 272.094 295.56 270.036 296.142C265.62 304.03 250.658 308.506 239.492 304.264C235.698 306.481 232.093 308.013 226.676 307.825C221.9 307.661 217.018 305.25 214.702 303.102C213.524 302.01 212.006 300.358 210.927 298.548C209.972 296.955 208.539 293.107 211.381 293.188C212.754 293.228 212.752 294.773 213.379 296.029C213.963 297.197 215.252 298.775 216.264 299.804C220.098 303.684 228.534 306.057 234.981 302.492C230.354 299.414 224.154 294.924 224.769 286.857C225.127 282.104 228.941 277.652 234.612 277.581C240.39 277.507 245.82 282.594 247.154 287.623C248.271 291.848 246.539 296.242 245.062 298.713C244.425 299.77 243.227 300.52 243.132 301.535C250.465 303.561 260.588 301.303 263.775 297.352C257.347 297.246 251.911 294.224 250.286 289.127C248.169 282.475 253.986 277.711 259.179 277.457C266.691 277.085 272.672 283.743 272.052 291.374C273.046 290.999 273.879 290.481 274.549 289.823C273.409 284.49 273.592 277.375 277.351 275.306C278.938 274.43 281.28 274.82 282.308 275.608C286.928 279.157 282.678 287.205 280.511 289.596C279.873 290.293 278.841 290.732 278.892 291.598C280.272 297.627 288.124 302.637 294.722 298.929C291.714 294.134 292.32 285.371 296.6 282.67C300.724 280.066 304.423 283.772 304.986 287.369C305.8 292.568 302.407 297.38 300.062 300.02C302.058 301.921 304.376 303.434 307.719 303.614C314.615 303.985 318.812 299.017 320.116 294.078C316.177 292.103 309.723 287.06 309.68 281.362C309.648 276.599 314.891 275.662 318.241 277.964C321.923 280.496 324.358 286.194 324.455 291.811C327.32 292.446 331.409 292.186 333.281 290.661C331.146 285.898 330.829 277.652 335.21 275.703C336.396 275.172 337.728 275.241 338.439 275.417C341.181 276.099 342.593 279.264 342.332 282.711C342.173 284.822 341.219 287.286 340.207 288.946C339.506 290.091 338.308 290.893 338.112 291.939C340.646 295.781 345.341 300.655 352.735 298.828C354.196 298.469 359.314 295.978 359.223 294.859C359.207 294.618 358.015 293.883 357.452 293.31C356.804 292.648 356.083 291.926 355.848 291.589C353.347 288.027 353.043 281.226 356.323 278.621C357.936 277.339 361.405 277.287 362.965 278.371C367.038 281.198 367.083 289.659 364.48 294.013C368.49 296.647 378.285 297.394 381.865 293.514C377.281 289.787 376.871 278.868 382.512 276.497C387.732 274.297 391.353 278.983 391.49 283.114C391.633 287.213 389.08 291.072 387.49 293.463C390.245 294.638 391.562 295.615 394.755 295.776C401.642 296.124 405.154 292.538 408.665 289.745C409.838 288.809 411.02 287.555 412.161 287.671C412.984 287.752 413.691 288.629 413.763 289.228C413.917 290.543 412.164 291.511 410.83 292.579C407.269 295.426 403.604 298.605 398.141 299.208C391.916 299.896 388.313 297.933 384.698 295.994C381.953 298.479 377.342 300.11 372.066 299.877C368.355 299.71 364.896 298.052 362.389 297.008C359.135 300.238 354.945 303.102 348.465 302.716C342.02 302.328 337.72 297.95 334.958 293.999C332.304 295.591 327.143 296.218 323.578 295.242C321.841 301.576 316.473 307.637 307.53 307.179Z" fill="white"/>
<path fill-rule="evenodd" clip-rule="evenodd" d="M287.979 310.46C289.273 310.352 289.888 309.903 289.963 308.928C290.196 305.924 284.231 306.045 284.676 308.968C284.881 310.329 286.221 310.61 287.979 310.46Z" fill="#2D6D8B"/>
<path fill-rule="evenodd" clip-rule="evenodd" d="M348.726 302.326C350.254 302.625 351.566 301.749 351.015 299.975C350.398 298.008 346.807 298.273 346.945 300.614C347.015 301.749 347.62 302.115 348.726 302.326Z" fill="#2D6D8B"/>
<path fill-rule="evenodd" clip-rule="evenodd" d="M345.76 292.729C346.763 292.931 350.357 291.718 350.26 290.127C350.211 289.402 349.543 288.677 348.824 288.563C348.155 288.459 345.052 289.523 344.628 290.179C344.033 291.119 344.281 292.43 345.76 292.729Z" fill="#2D6D8B"/>
<path fill-rule="evenodd" clip-rule="evenodd" d="M270.221 293.979C272.332 294.383 273.311 293.616 273.22 292.251C273.066 290.032 268.098 289.62 268.458 292.588C268.535 293.276 268.942 293.733 270.221 293.979Z" fill="#2D6D8B"/>
<path fill-rule="evenodd" clip-rule="evenodd" d="M331.478 281.78C329.383 280.982 327.084 281.901 327.471 283.876C328.033 286.762 334.089 284.771 331.478 281.78Z" fill="#2D6D8B"/>
<path fill-rule="evenodd" clip-rule="evenodd" d="M291.83 276.324C293.557 276.725 295.744 275.544 295.461 273.438C295.091 270.688 289.918 271.068 290.037 274.29C290.065 275.045 290.553 276.032 291.83 276.324Z" fill="#2D6D8B"/>
<path fill-rule="evenodd" clip-rule="evenodd" d="M253.076 275.854C255.166 276.257 257.557 275.371 257.586 273.579C257.609 272.249 256.193 271.002 254.916 270.931C253.247 270.835 250.784 272.062 251.126 274.149C251.239 274.836 251.764 275.6 253.076 275.854Z" fill="#2D6D8B"/>
<path fill-rule="evenodd" clip-rule="evenodd" d="M347.115 272.285C349.224 272.737 350.716 272.102 350.791 270.362C350.927 267.236 344.82 266.458 344.976 270.097C345.035 271.438 345.776 271.994 347.115 272.285Z" fill="#2D6D8B"/>
<path fill-rule="evenodd" clip-rule="evenodd" d="M321.722 273.086C322.865 273.29 323.76 272.969 324.259 272.505C325.605 271.257 324.99 268.103 322.543 268.202C320.304 268.283 318.071 272.434 321.722 273.086Z" fill="#2D6D8B"/>
<path fill-rule="evenodd" clip-rule="evenodd" d="M275.006 265.798C277.577 266.033 279.291 265.162 278.462 262.75C278.182 261.947 274.993 260.49 273.595 260.668C271.1 260.989 271.174 264.288 272.942 265.389C273.518 265.75 274.115 265.716 275.006 265.798Z" fill="#2D6D8B"/>
<path fill-rule="evenodd" clip-rule="evenodd" d="M360.595 260.113C363.383 260.222 364.089 255.456 360.903 255.251C357.847 255.046 356.561 259.961 360.595 260.113Z" fill="#2D6D8B"/>
<path fill-rule="evenodd" clip-rule="evenodd" d="M285.021 248.212C286.465 248.552 288.315 247.486 287.645 245.686C287.107 244.248 283.704 244.62 283.58 246.487C283.543 247.123 283.756 247.91 285.021 248.212Z" fill="#F89CAA"/>
<path fill-rule="evenodd" clip-rule="evenodd" d="M315.687 247.044C318.441 247.628 320.098 246.569 319.674 244.469C319.168 241.942 313.863 241.252 313.343 244.061C313.021 245.824 314.422 246.779 315.687 247.044Z" fill="#F89CAA"/>
<path fill-rule="evenodd" clip-rule="evenodd" d="M231.5 249.597C233.598 251.067 236.837 249.584 237.057 247.767C237.464 244.331 230.02 243.755 230.013 246.738C230.01 248.049 231.324 248.142 231.5 249.597Z" fill="#F89CAA"/>
<path fill-rule="evenodd" clip-rule="evenodd" d="M354.22 242.346C356.077 242.649 358.983 241.912 358.897 239.906C358.832 238.291 356.501 237.471 354.711 237.798C352.236 238.248 350.804 241.79 354.22 242.346Z" fill="#F89CAA"/>
<path fill-rule="evenodd" clip-rule="evenodd" d="M262.543 241.297C263.267 241.672 264.665 241.826 265.486 242.321L265.66 242.313C267.021 242.295 268.341 241.192 268.291 239.948C268.154 236.517 260.474 237.283 262.543 241.297Z" fill="#F89CAA"/>
<path fill-rule="evenodd" clip-rule="evenodd" d="M303.782 231.8C302.317 230.802 300.133 231.687 300.078 233.07C299.986 235.713 305.152 235.019 303.782 231.8Z" fill="#F89CAA"/>
<path fill-rule="evenodd" clip-rule="evenodd" d="M341.221 229.406C341.618 228.685 342.197 227.86 341.791 226.795C341.18 225.168 337.313 224.802 337.193 226.969C337.127 228.094 339.361 230.287 341.221 229.406Z" fill="#F89CAA"/>
<path fill-rule="evenodd" clip-rule="evenodd" d="M280.172 230.269C280.544 229.087 280.804 228.314 280.563 227.502C279.817 224.987 274.944 225.06 274.936 227.553C274.929 228.853 278.366 231.991 280.172 230.269Z" fill="#F89CAA"/>
<path d="M300.434 304.933L299.263 210.905H302.926L309.212 304.61L300.434 304.933Z" fill="#0FAFF0"/>
<path fill-rule="evenodd" clip-rule="evenodd" d="M294.598 202.576C292.498 198.235 290.119 192.684 287.818 189C287.065 187.792 286.39 185.649 284.8 185.78C286.298 192.821 290.35 199.332 294.598 202.576ZM302.134 206.863C304.624 205.111 305.678 201.261 306.648 197.572C308.505 190.559 309.41 180.485 307.406 173.629C307.384 173.411 307.355 173.205 307.029 173.272C303.169 182.147 300.611 194.066 302.134 206.863ZM296.111 192.926C298.281 185.581 298.213 171.93 304.773 167.913C311.345 163.882 313.805 174.008 314.191 178.991C315.113 191.033 311.531 212.652 301.757 213.296C295.679 213.701 288.979 205.825 286.308 202.22C283.561 198.505 278.073 189.351 279.149 183.278C279.553 181.013 281.555 178.857 283.292 178.628C287.344 178.115 289.864 182.491 291.21 184.351C293.422 187.431 295.069 189.558 296.111 192.926Z" fill="#0FAFF0"/>
<path d="M157.751 43.9884L162.155 146.614L226.68 145.12L225.554 43.8708L157.751 43.9884Z" fill="#EF2A5E"/>
<path d="M151.55 35.4409L151.877 55.7692L234.05 57.2983L232.907 38.6454L151.55 35.4409Z" fill="#ED1639"/>
<path fill-rule="evenodd" clip-rule="evenodd" d="M154.814 29.8544C156.238 28.1536 156.268 25.1288 159.57 25.2051C161.145 27.3573 158.35 29.4316 157.12 30.6746C158.862 30.8749 161.252 30.8765 161.302 32.3166C161.356 33.9919 158.361 33.6216 156.545 33.2719C156.912 34.6198 158.417 35.583 157.844 37.3744C157.725 37.4936 157.446 37.4587 157.408 37.651C155.514 37.5795 155.367 35.8485 154.383 34.9107C153.612 36.3222 153.951 38.7907 151.93 39.0132C150.546 38.0261 151.693 35.2143 151.93 33.6836C151.254 33.9967 149.632 34.4163 148.903 33.8202C148.927 33.6613 148.871 33.577 148.761 33.5453C149.116 31.6982 151.04 31.3326 152.65 30.6746C152.148 29.7701 149.18 25.1049 151.497 24.795C152.575 24.6519 153.106 26.2128 153.518 26.9853C154.102 28.0646 154.517 28.8641 154.814 29.8544Z" fill="white"/>
<path fill-rule="evenodd" clip-rule="evenodd" d="M198.916 37.7658C199.546 35.0906 205.297 34.8633 207.709 36.1254C206.832 33.7268 205.026 31.6795 204.392 28.6038C204.19 27.6183 204.055 26.121 204.97 25.8698C206.717 25.3834 208.183 29.0568 208.572 29.9708C209.445 32.0149 209.83 33.6966 210.16 35.8504C210.648 35.9919 210.913 35.2973 211.167 35.0286C213.12 32.9813 216.27 29.5066 219.528 28.7389C221.415 28.2954 222.998 28.866 223.276 30.516C223.615 32.5251 222.077 34.8919 220.825 36.1254C218.876 38.0487 216.309 39.1788 213.619 39.5428C214.088 40.0944 215.074 40.433 215.779 41.0449C217.078 42.1767 218.651 44.4449 218.234 46.106C217.54 48.8479 213.431 45.823 212.322 44.739C210.898 43.3466 210.264 41.8985 209.148 40.638C209.175 43.4181 209.136 45.5496 208.428 48.1564C208.067 49.4853 207.543 51.318 206.267 51.3037C205.068 51.2846 204.66 49.5218 204.536 48.1564C204.231 44.6643 205.21 40.0881 206.267 37.7658L206.412 37.4924C204.55 38.152 200.61 39.4427 198.916 37.7658Z" fill="white"/>
<path fill-rule="evenodd" clip-rule="evenodd" d="M233.801 53.3536C234.371 52.9705 234.651 52.1583 235.1 51.4414C236.053 49.898 237.784 47.199 239.277 46.2453C240.05 45.7525 241.407 45.4807 242.158 45.9703C243.547 49.4068 239.909 51.8563 238.413 53.8988C240.4 53.9036 242.207 54.1325 242.305 55.5424C242.453 57.6771 238.517 58.2159 236.249 57.3179C236.507 59.0838 237.134 61.4156 236.971 63.7443C236.881 65.0365 236.578 67.0966 234.954 66.8883C232.415 66.5657 232.023 60.3506 231.493 57.9997C229.782 58.5275 227.565 60.686 225.583 59.2348C225.374 57.4514 226.801 56.6804 227.746 55.9524C228.738 55.1799 229.798 54.301 231.205 54.0371C230.535 52.5127 228.33 48.7805 229.043 46.2453C229.223 45.611 229.841 44.9085 230.915 45.1501C232.008 45.3933 232.544 47.5041 232.936 48.7058C233.451 50.2794 233.833 51.621 233.801 53.3536Z" fill="white"/>
<path fill-rule="evenodd" clip-rule="evenodd" d="M219.818 66.4776C221.4 66.5078 224.773 65.6272 225.148 67.4344C225.589 69.5247 220.884 70.8869 218.088 70.8503C218.534 73.1138 219.087 77.5168 216.79 77.69C214.256 77.8792 214.201 72.8897 213.762 70.8503C212.414 71.4305 210.229 74.0071 207.995 72.9024C207.315 70.3417 210.806 69.1178 212.899 68.2562C212.262 66.9099 209.634 64.7434 210.16 62.7851C210.737 60.6265 212.969 62.7676 213.619 63.8803C214.273 64.9961 214.442 65.9451 214.77 67.0244C215.751 65.0232 216.682 60.1401 219.24 59.641C220.396 59.4153 221.23 60.3706 221.401 61.283C221.77 63.2111 220.473 65.2727 219.818 66.4776Z" fill="white"/>
<path fill-rule="evenodd" clip-rule="evenodd" d="M213.762 92.5913C216.442 92.5452 219.145 92.7503 219.24 94.645C219.364 97.0801 215.646 97.3694 213.043 97.7906C213.754 99.164 216.066 102.869 215.493 105.721C215.321 106.579 214.721 107.491 213.328 107.363C211.919 107.228 210.875 105.3 210.305 104.08C209.541 102.453 209.305 100.901 208.862 99.2943C207.24 100.053 205.925 102.953 202.953 102.44C201.601 101.251 203.716 99.253 204.824 98.2023C206.042 97.0483 207.215 96.1201 208.143 95.6019C206.801 94.2826 205.191 93.4099 204.103 91.3658C203.516 90.25 203.091 88.3982 204.393 88.0803C205.837 87.7338 206.818 89.6316 207.423 90.4057C208.329 91.5788 208.988 92.3386 209.439 93.553C210.106 91.2371 210.509 87.4365 212.033 85.483C213.083 84.1383 216.039 83.1909 216.504 85.758C217.003 88.5079 214.69 90.8905 213.762 92.5913Z" fill="white"/>
<path fill-rule="evenodd" clip-rule="evenodd" d="M239.567 86.8511C239.889 91.0856 237.402 93.8163 236.539 97.3832C239.346 97.4309 244.66 96.8778 244.467 99.7055C244.305 102.147 239.596 101.063 237.98 100.114C238.317 101.392 239.07 102.908 239.711 104.492C240.293 105.925 241.478 107.671 240.432 109.278C238.723 110.085 237.446 107.462 236.685 106.269C235.688 104.714 234.775 103.336 234.374 102.166C232.668 103.339 232.07 106.254 229.188 105.859C228.573 104.234 229.653 102.597 230.339 101.347C231.085 99.998 232.152 98.8663 233.079 97.93C232.368 96.7395 231.314 95.4408 230.485 94.1025C229.717 92.8547 228.412 91.2938 229.333 89.7233C230.922 89.6582 231.723 90.9965 232.358 91.9105C233.05 92.8992 233.583 94.1152 234.089 95.1929C234.694 93.4444 235.163 89.8505 236.249 87.9463C236.831 86.9369 238.131 85.5413 239.567 86.8511Z" fill="white"/>
<path fill-rule="evenodd" clip-rule="evenodd" d="M229.043 118.165C231.002 118.397 232.963 118.561 233.222 120.077C233.574 122.126 230.987 123.543 228.899 123.905C229.212 126.461 229.301 129.999 227.17 130.196C224.405 130.449 223.974 125.452 223.563 123.222C222.571 123.185 220.334 126.504 218.519 126.23C218.136 126.173 217.611 125.736 217.511 125.41C216.882 123.385 221.075 121.354 222.412 120.763C221.906 119.481 217.398 114.095 220.539 112.832C222.441 112.065 224.302 115.249 225.008 116.388C225.916 115.509 226.399 113.68 227.459 112.697C228.083 112.114 229.281 111.543 230.198 112.011C232.256 113.072 229.747 116.983 229.043 118.165Z" fill="white"/>
<path fill-rule="evenodd" clip-rule="evenodd" d="M210.684 135.569C212.026 135.215 214.099 134.991 214.437 136.116C215.094 138.321 210.724 139.371 208.525 139.532C209.013 141.113 210.662 143.763 210.399 145.823C210.328 146.356 209.857 147.246 209.246 147.325C207.994 147.497 207.082 145.521 206.65 144.594C205.99 143.18 205.841 141.999 205.355 140.764C204.482 141.724 202.926 143.986 201.316 142.542C201.388 140.012 203.049 138.991 204.632 137.895C203.803 136.089 200.612 134.622 201.894 132.149C203.977 132.177 204.161 134.01 205.355 134.884C205.319 133.018 204.275 129.047 206.075 128.871C207.882 128.69 207.624 132.236 207.947 133.927C208.936 132.147 209.516 128.469 211.263 127.364C211.811 127.019 212.854 126.704 213.571 127.501C214.084 131.053 211.888 133.191 210.684 135.569Z" fill="white"/>
<path fill-rule="evenodd" clip-rule="evenodd" d="M163.465 47.4034C164.76 47.2349 166.118 47.6307 166.205 48.6353C166.355 50.3822 163.178 51.1181 161.59 51.5076C161.96 52.2578 162.677 53.2259 163.175 54.3767C163.728 55.6499 164.748 58.4395 163.175 58.8877C161.74 59.2978 160.432 57.0216 159.862 56.017C158.972 54.4577 158.567 53.2068 157.983 51.781C156.836 52.6965 156.437 54.321 154.24 54.2431C153.162 53.1591 154.25 52.0226 154.815 51.2342C155.46 50.3313 156.205 49.3903 156.975 48.9103C155.51 47.3271 152.551 46.4656 153.085 43.436C154.729 42.9433 155.713 44.2037 156.546 44.9429C157.449 45.7456 158.412 46.5817 158.996 47.5402C160.031 45.4658 161.043 41.9514 163.032 40.7036C163.647 40.3158 164.953 39.8262 165.769 40.7036C166.28 43.6188 164.5 45.504 163.465 47.4034Z" fill="white"/>
<path fill-rule="evenodd" clip-rule="evenodd" d="M186.28 49.3556C188.27 46.976 188.312 42.7495 192.928 42.8576C195.127 45.8634 191.219 48.7627 189.505 50.5C191.94 50.7798 195.278 50.7814 195.34 52.7937C195.417 55.1382 191.237 54.6153 188.697 54.1305C189.208 56.0125 191.318 57.3588 190.508 59.8607C190.348 60.026 189.955 59.9767 189.902 60.2438C187.257 60.142 187.053 57.7307 185.672 56.421C184.598 58.3936 185.072 61.838 182.25 62.1544C180.315 60.7715 181.918 56.839 182.25 54.7027C181.312 55.1414 179.041 55.7311 178.022 54.8934C178.054 54.6741 177.977 54.5549 177.82 54.512C178.319 51.929 181.005 51.4203 183.259 50.5C182.552 49.2395 178.413 42.7193 181.647 42.2854C183.154 42.0851 183.887 44.2707 184.467 45.3436C185.282 46.8537 185.865 47.9711 186.28 49.3556Z" fill="white"/>
<path fill-rule="evenodd" clip-rule="evenodd" d="M148.761 72.1539C149.391 69.4787 155.141 69.2514 157.552 70.5119C156.679 68.1149 154.874 66.0692 154.239 62.9887C154.033 62.0095 153.9 60.5091 154.814 60.2563C156.563 59.7715 158.028 63.4449 158.415 64.3573C159.29 66.403 159.675 68.0863 160.004 70.2401C160.49 70.3799 160.758 69.6853 161.012 69.4199C162.963 67.3678 166.117 63.8947 169.373 63.1286C171.256 62.6851 172.843 63.2557 173.12 64.9072C173.455 66.9148 171.918 69.2784 170.67 70.5119C168.719 72.4352 166.154 73.5653 163.464 73.9309C163.935 74.4825 164.919 74.8195 165.626 75.4346C166.923 76.5648 168.495 78.833 168.074 80.4956C167.382 83.2328 163.276 80.2127 162.167 79.1255C160.741 77.7346 160.109 76.285 158.995 75.0213C159.018 77.8062 158.981 79.9361 158.274 82.5445C157.911 83.8765 157.389 85.7077 156.112 85.6886C154.909 85.6743 154.502 83.9083 154.383 82.5445C154.075 79.0524 155.053 74.4746 156.112 72.1539L156.255 71.8773C154.395 72.5401 150.452 73.8292 148.761 72.1539Z" fill="white"/>
<path fill-rule="evenodd" clip-rule="evenodd" d="M183.644 87.7401C184.216 87.3586 184.494 86.5416 184.941 85.8247C185.895 84.2861 187.629 81.5823 189.122 80.6302C189.891 80.139 191.251 79.864 192.006 80.3568C193.39 83.7949 189.754 86.2428 188.256 88.2869C190.243 88.2901 192.05 88.5174 192.15 89.9273C192.298 92.0636 188.361 92.6009 186.094 91.706C186.352 93.4735 186.979 95.8021 186.816 98.1324C186.726 99.4262 186.423 101.481 184.795 101.276C182.26 100.954 181.866 94.7324 181.338 92.3878C179.626 92.9156 177.41 95.0725 175.43 93.6213C175.218 91.8395 176.65 91.0686 177.59 90.3358C178.583 89.5681 179.641 88.6843 181.05 88.4236C180.378 86.8992 178.173 83.1655 178.89 80.6302C179.064 79.996 179.683 79.2966 180.764 79.535C181.851 79.7814 182.387 81.8907 182.781 83.0908C183.296 84.6676 183.676 86.0059 183.644 87.7401Z" fill="white"/>
<path fill-rule="evenodd" clip-rule="evenodd" d="M169.661 100.867C171.241 100.898 174.619 100.016 174.991 101.824C175.43 103.915 170.728 105.278 167.931 105.243C168.377 107.501 168.932 111.904 166.634 112.079C164.1 112.268 164.045 107.277 163.606 105.243C162.26 105.82 160.07 108.395 157.84 107.291C157.156 104.729 160.647 103.505 162.74 102.644C162.106 101.297 159.48 99.1308 160.003 97.1757C160.58 95.0156 162.812 97.1551 163.464 98.2677C164.115 99.3852 164.285 100.333 164.617 101.415C165.593 99.4106 166.529 94.5308 169.086 94.0301C170.239 93.8044 171.075 94.7581 171.246 95.6705C171.611 97.5986 170.317 99.6602 169.661 100.867Z" fill="white"/>
<path fill-rule="evenodd" clip-rule="evenodd" d="M198.204 110.982C199.597 111.634 201.866 111.53 201.661 113.307C201.447 115.204 197.807 114.631 196.617 113.582C195.736 114.482 195.475 118.68 193.303 118.504C190.908 118.31 192.731 113.403 193.448 112.079C192.601 111.306 190.278 110.286 190.419 108.661C190.598 106.612 193.293 107.703 194.312 108.661C195.124 107.355 196.348 104.533 198.635 105.105C200.983 105.689 199.337 109.729 198.204 110.982Z" fill="white"/>
<path fill-rule="evenodd" clip-rule="evenodd" d="M163.607 126.982C166.285 126.933 168.991 127.136 169.086 129.034C169.205 131.468 165.489 131.757 162.888 132.177C163.6 133.552 165.911 137.252 165.338 140.108C165.163 140.964 164.564 141.879 163.174 141.75C161.763 141.617 160.719 139.686 160.146 138.467C159.385 136.839 159.149 135.287 158.707 133.68C157.081 134.442 155.769 137.341 152.795 136.825C151.444 135.639 153.559 133.639 154.668 132.588C155.883 131.433 157.058 130.506 157.983 129.99C156.646 128.666 155.034 127.796 153.949 125.752C153.358 124.636 152.934 122.786 154.239 122.468C155.682 122.117 156.662 124.019 157.264 124.793C158.171 125.967 158.831 126.725 159.283 127.938C159.952 125.626 160.352 121.823 161.877 119.871C162.926 118.529 165.881 117.58 166.345 120.144C166.843 122.897 164.533 125.278 163.607 126.982Z" fill="white"/>
<path fill-rule="evenodd" clip-rule="evenodd" d="M189.408 121.244C189.735 125.476 187.243 128.205 186.382 131.768C189.19 131.821 194.501 131.263 194.311 134.094C194.149 136.537 189.44 135.453 187.824 134.502C188.16 135.782 188.91 137.295 189.554 138.878C190.137 140.315 191.322 142.059 190.276 143.666C188.567 144.472 187.29 141.846 186.527 140.655C185.53 139.104 184.619 137.724 184.218 136.554C182.514 137.728 181.914 140.644 179.032 140.247C178.417 138.622 179.493 136.982 180.185 135.734C180.927 134.39 181.994 133.253 182.923 132.317C182.211 131.128 181.157 129.829 180.33 128.488C179.56 127.241 178.254 125.684 179.176 124.115C180.768 124.05 181.564 125.386 182.202 126.299C182.889 127.289 183.427 128.504 183.93 129.581C184.537 127.831 185.004 124.236 186.093 122.336C186.673 121.324 187.974 119.925 189.408 121.244Z" fill="white"/>
<path fill-rule="evenodd" clip-rule="evenodd" d="M178.89 152.55C180.845 152.782 182.808 152.949 183.067 154.467C183.419 156.514 180.832 157.929 178.742 158.291C179.054 160.85 179.144 164.387 177.013 164.584C174.244 164.837 173.817 159.841 173.41 157.611C172.416 157.571 170.179 160.89 168.364 160.618C167.979 160.559 167.456 160.122 167.354 159.798C166.727 157.775 170.921 155.743 172.257 155.15C171.749 153.871 167.245 148.477 170.382 147.219C172.286 146.454 174.149 149.636 174.851 150.774C175.761 149.898 176.244 148.066 177.303 147.082C177.926 146.5 179.128 145.928 180.041 146.398C182.102 147.459 179.59 151.37 178.89 152.55Z" fill="white"/>
<path d="M190.866 36.6013L189.527 145.981L200.705 145.722L193.718 36.6618L190.866 36.6013Z" fill="#0FAFF0"/>
<path d="M212.014 14.0942C213.041 21.2375 206.863 28.0868 204.93 30.0355C202.821 32.1575 199.354 34.7659 194.772 35.2953C195.131 29.3123 198.633 22.7365 204.227 17.623L204.783 17.1048C206.36 15.6313 208.007 14.107 210.114 13.9162C210.734 13.8622 211.36 13.9194 212.014 14.0942ZM187.891 32.7155C183.752 28.899 177.161 17.9457 179.466 11.1378L179.496 11.2093L179.695 11.2618C184.528 12.527 188.305 20.2806 189.544 27.2888C190.05 30.1436 189.894 32.202 189.079 33.7725L189.049 33.8504C188.781 33.6564 188.386 33.2368 188.218 33.0588C188.091 32.9126 187.973 32.8013 187.891 32.7155ZM215.436 10.4368C214.023 9.22559 212.014 8.6597 209.783 8.86315C208.357 8.98873 206.841 9.43699 205.413 10.1523C200.994 12.3474 197.674 16.8282 194.752 20.7829C194.34 21.3345 193.936 21.8765 193.542 22.4042C190.465 12.4745 186.229 7.17985 180.639 6.23886C178.551 5.89393 176.337 6.59014 175.114 7.94441C169.701 13.9417 177.983 27.9215 178.941 29.4951C182.296 34.9805 187.196 41.1971 195.325 40.4644C196.662 40.3452 198.077 40.0447 199.518 39.5568C204.565 37.8639 208.76 33.4339 211.384 30.0165C214.471 26.0157 217.75 21.3186 217.732 16.1272C217.723 13.6953 216.939 11.7291 215.436 10.4368Z" fill="#0FAFF0"/>
<path d="M320.914 49.1699C312.562 48.5087 309.693 62.3534 318.751 63.5423C322.766 64.0605 330.023 49.8645 320.914 49.1699Z" fill="#0DBD98"/>
<path d="M341.724 28.6974C338.959 28.308 335.851 30.6382 334.904 33.8077C332.628 41.3658 342.437 43.7485 345.108 36.0155C346.334 32.4979 344.774 29.1234 341.724 28.6974Z" fill="#FF7250"/>
<path d="M318.178 26.671C316.724 24.7874 313.898 24.9909 312.122 27.1097C310.468 29.095 310.336 31.8703 311.839 33.6029C315.386 37.6514 321.305 30.7354 318.178 26.671Z" fill="#0FAFF0"/>
<path fill-rule="evenodd" clip-rule="evenodd" d="M166.678 30.5732C168.749 29.2614 169.796 26.0879 173.245 27.2768C174.18 30.071 170.542 31.3156 168.83 32.2108C170.597 33.0068 173.111 33.811 172.681 35.3436C172.175 37.125 169.147 35.7295 167.353 34.7515C167.286 36.2934 168.547 37.8126 167.342 39.5056C167.177 39.5911 166.895 39.4609 166.79 39.6504C164.821 38.9392 165.247 37.0678 164.527 35.7504C163.242 36.9772 162.769 39.6889 160.567 39.2445C159.442 37.7407 161.594 35.1667 162.357 33.635C161.541 33.7378 159.693 33.6347 159.126 32.7625C159.204 32.6031 159.174 32.4959 159.068 32.4253C160.062 30.6006 162.21 30.8618 164.126 30.71C163.9 29.5892 162.343 23.6823 164.887 24.1344C166.069 24.3457 166.104 26.1669 166.278 27.1184C166.53 28.4502 166.699 29.4313 166.678 30.5732Z" fill="#F5B91B"/>
<path fill-rule="evenodd" clip-rule="evenodd" d="M52.1125 117.833C52.4425 124.291 46.4042 122.051 40.6272 121.927C34.0349 121.789 25.814 124.41 20.8847 127.496C19.3029 128.482 17.5461 130.602 15.966 131.827C14.6475 132.853 13.5582 134.854 10.138 134.275C8.13839 133.934 5.85289 132.174 5.70646 130.325C5.32173 125.47 12.8047 120.929 15.1363 119.468C18.9364 117.09 24.6306 114.908 30.0871 113.649C35.8565 112.31 51.7057 109.978 52.1125 117.833Z" fill="#FF7250"/>
<path fill-rule="evenodd" clip-rule="evenodd" d="M29.2845 100.978C29.285 105.058 25.8361 104.855 22.1634 107.328C19.23 109.304 16.5412 113.102 14.2906 113.085C10.8206 113.058 8.67926 110.347 8.59725 108.85C8.35315 104.365 13.3119 101.79 15.8256 100.002C17.977 98.473 21.3853 94.801 26.2907 96.5173C28.7381 97.3737 29.2879 99.1344 29.2845 100.978Z" fill="#F5B91B"/>
<path d="M335.014 106.681C326.446 103.18 318.777 116.788 327.911 121.081C331.963 122.975 344.369 110.471 335.014 106.681Z" fill="#0DBD98"/>
<path d="M363.794 92.1214C361.015 90.7829 356.96 92.1917 354.899 95.2097C349.966 102.401 359.489 108.202 364.898 100.96C367.37 97.6696 366.861 93.5939 363.794 92.1214Z" fill="#FF7250"/>
<path fill-rule="evenodd" clip-rule="evenodd" d="M131.612 11.8916C126.967 9.55991 126.402 15.4495 125.648 19.0118C124.632 23.7934 121.167 28.6769 118.394 29.4253C115.524 30.1998 113.221 28.1951 111.758 31.1365C110.198 34.2647 112.994 35.5568 114.969 36.6844C120.16 39.6421 121.435 41.317 120.208 47.427C119.313 51.8897 116.866 56.2021 121.123 57.5031C126.901 59.2674 126.78 47.9292 131.318 43.6686C132.367 42.6835 133.511 41.9112 134.817 41.6439C136.299 41.3369 140.981 42.7478 142.213 39.5429C142.553 38.6558 142.194 36.7885 141.338 35.9161C139.785 34.3275 138.537 34.8439 137.351 34.1208C133.266 31.6432 132.8 25.9368 133.237 20.648C133.543 16.9299 134.874 13.5316 131.612 11.8916Z" fill="#0FAFF0"/>
<path fill-rule="evenodd" clip-rule="evenodd" d="M92.3353 82.2823C91.1942 82.4602 90.7571 82.752 89.6073 82.1105C87.3475 80.855 88.4048 78.7592 88.2841 76.8534C88.171 75.0275 87.5253 72.3919 86.1552 71.1861C84.3601 69.607 81.2406 69.255 83.0138 66.4567C83.891 65.0776 85.7197 65.827 87.1526 64.9293C87.8757 64.478 88.7488 63.2764 89.2672 62.3764C91.0463 59.3035 91.2012 51.8746 95.3135 53.8411C99.0023 55.6061 94.3996 63.4056 97.3538 66.468C98.9135 68.0845 102.069 68.1899 100.798 71.1078C99.9317 73.0913 97.486 72.4917 96.1568 74.0749C93.9327 76.7275 94.9579 79.4712 92.3353 82.2823Z" fill="#FF7250"/>
</svg>
