<svg width="82" height="20" viewBox="0 0 82 20" fill="none" xmlns="http://www.w3.org/2000/svg">
<path fill-rule="evenodd" clip-rule="evenodd" d="M16.8184 16.7118C18.396 14.9897 19.3586 12.695 19.3586 10.1754C19.3586 4.82967 15.0251 0.496094 9.67932 0.496094C4.33358 0.496094 0 4.82967 0 10.1754C0 10.2982 0.00228594 10.4204 0.00681757 10.5421L11.8133 4.39802C12.1365 4.22984 12.5336 4.38763 12.6533 4.73174L16.8184 16.7118ZM14.5611 18.5353C13.1279 19.374 11.4598 19.8547 9.67932 19.8547C4.9895 19.8547 1.0787 16.5194 0.189596 12.0913L9.45481 12.9561C9.60696 12.9703 9.74787 13.0423 9.84857 13.1572L14.5611 18.5353Z" fill="#0FAFF0"/>
<path d="M39.0128 19.5102V3.26938H35.3936V13.1422L29.3004 3.26938H24.9023V19.5102H28.4987V8.8357L35.1874 19.5102H39.0128Z" fill="#040235"/>
<path d="M46.8165 16.6469C45.5108 16.6469 44.251 15.7077 44.251 13.8064C44.251 11.8823 45.5108 10.9889 46.8165 10.9889C48.1451 10.9889 49.382 11.8823 49.382 13.8064C49.382 15.7306 48.1451 16.6469 46.8165 16.6469ZM46.8165 7.78199C43.4263 7.78199 40.7691 10.2788 40.7691 13.8064C40.7691 17.3341 43.4263 19.8538 46.8165 19.8538C50.2296 19.8538 52.8639 17.3341 52.8639 13.8064C52.8639 10.2788 50.2296 7.78199 46.8165 7.78199Z" fill="#040235"/>
<path d="M61.771 8.12559C61.5419 8.05687 61.1983 8.01106 60.8547 8.01106C59.9384 8.01106 58.4953 8.37757 57.8997 9.66034V8.12559H54.5325V19.5102H58.0143V14.5395C58.0143 12.2717 59.2741 11.4471 60.6715 11.4471C61.015 11.4471 61.3816 11.47 61.771 11.5616V8.12559Z" fill="#040235"/>
<path d="M67.8597 4.80413H64.7444V6.27015C64.7444 7.32386 64.1717 8.12559 62.9805 8.12559H62.4079V11.1722H64.4237V16.0513C64.4237 18.3191 65.8668 19.7164 68.2262 19.7164C69.3257 19.7164 69.8984 19.4644 70.0358 19.3957V16.5094C69.8296 16.5552 69.486 16.624 69.1195 16.624C68.3636 16.624 67.8597 16.372 67.8597 15.4328V11.1722H70.0816V8.12559H67.8597V4.80413Z" fill="#040235"/>
<path d="M74.6082 12.8215C74.6769 11.7678 75.387 10.9889 76.4865 10.9889C77.7464 10.9889 78.342 11.8365 78.342 12.9589V19.5102H81.8238V12.3633C81.8238 9.8665 80.4952 7.82781 77.5173 7.82781C76.5094 7.82781 75.3183 8.1485 74.6082 8.85861V2.92578H71.1264V19.5102H74.6082V12.8215Z" fill="#040235"/>
</svg>
